<?xml version="1.0" encoding="UTF-8"?>
<svg id="Layer_2" data-name="Layer 2" xmlns="http://www.w3.org/2000/svg" viewBox="0 0 110.15 110.15">
  <defs>
    <style>
      .cls-1 {
        fill: #fcb349;
      }

      .cls-2 {
        fill: #434444;
      }

      .cls-3 {
        fill: #f15d3b;
      }

      .cls-4 {
        fill: #52afbb;
      }
    </style>
  </defs>
  <g id="Layer_1-2" data-name="Layer 1">
    <g>
      <rect class="cls-2" width="110.15" height="110.15"/>
      <path class="cls-1" d="m25.5,53.47l-13.91,8.9c10.17-.81,24.28,5.68,36.24,17.64,4.97,4.97,9,10.32,11.95,15.6h5.23c-2.28-8.54-8.04-18.22-16.61-26.79-7.29-7.29-15.39-12.54-22.9-15.35Z"/>
      <path class="cls-4" d="m60.57,53.67c-8.98-8.98-19.18-14.88-28.01-16.91l-16.36,10.46c10.17-.81,24.28,5.68,36.24,17.64,9.93,9.93,16.09,21.34,17.43,30.75h6.91c4.66-10-1.81-27.53-16.22-41.94Z"/>
      <path class="cls-3" d="m65.71,11.41l-34.27,21.91c10.17-.81,24.28,5.68,36.24,17.64,15.81,15.81,22.07,35.4,14.54,44.64h16.36V11.41h-32.86Z"/>
    </g>
  </g>
</svg>