<?xml version="1.0" encoding="UTF-8"?>
<svg id="Layer_1" data-name="Layer 1" xmlns="http://www.w3.org/2000/svg" viewBox="0 0 215.02 157.04">
  <defs>
    <style>
      .cls-1 {
        fill: #fcb349;
      }

      .cls-2 {
        fill: #434444;
      }

      .cls-3 {
        fill: #f15d3b;
      }

      .cls-4 {
        fill: #52afbb;
      }
    </style>
  </defs>
  <g>
    <g>
      <path class="cls-4" d="m21.28,143.25c0,1.86-.63,3.4-1.89,4.64-1.43,1.41-3.42,2.11-5.98,2.11H2.62v-23.33h10.11c2.24,0,4.12.54,5.65,1.63s2.29,2.57,2.29,4.45-.74,3.39-2.21,4.8c1.88,1.49,2.82,3.39,2.82,5.7Zm-5.18-9.98c0-1.71-.99-2.56-2.98-2.56h-5.7v5.28h5.57c2.07,0,3.1-.91,3.1-2.72Zm.61,9.44c0-1.83-1.05-2.75-3.14-2.75h-6.14v6.05h6.14c2.09,0,3.14-1.1,3.14-3.3Z"/>
      <path class="cls-4" d="m42.24,130.67h-6.82v19.33h-4.8v-19.33h-7.07v-4h18.69v4Z"/>
      <path class="cls-4" d="m72.48,126.67l-6.53,23.33h-4.32l-3.86-17.74-3.84,17.74h-4.33l-6.54-23.33h5.09l3.58,17.47,3.49-17.47h5.09l3.49,17.66,3.58-17.66h5.09Z"/>
      <path class="cls-2" d="m94.14,143.25c0,1.86-.63,3.4-1.89,4.64-1.43,1.41-3.42,2.11-5.98,2.11h-10.78v-23.33h10.11c2.24,0,4.12.54,5.65,1.63s2.29,2.57,2.29,4.45-.74,3.39-2.21,4.8c1.88,1.49,2.82,3.39,2.82,5.7Zm-5.18-9.98c0-1.71-.99-2.56-2.98-2.56h-5.7v5.28h5.57c2.07,0,3.1-.91,3.1-2.72Zm.61,9.44c0-1.83-1.05-2.75-3.14-2.75h-6.14v6.05h6.14c2.09,0,3.14-1.1,3.14-3.3Z"/>
      <path class="cls-2" d="m112.83,141.36c0,.51-.03.97-.1,1.38h-11.49c-.04.13-.06.33-.06.61,0,1.13.35,2.04,1.05,2.74.7.69,1.61,1.04,2.73,1.04.74,0,1.43-.21,2.06-.64.57-.4.93-.86,1.08-1.38h4.54c-.6,1.69-1.65,3.04-3.15,4.06-1.5,1.02-3.18,1.54-5.04,1.54-2.07,0-3.81-.65-5.22-1.95-1.69-1.56-2.53-3.79-2.53-6.69,0-3.11.68-5.51,2.03-7.18,1.35-1.67,3.3-2.51,5.84-2.51s4.47.83,5.98,2.48,2.27,3.82,2.27,6.51Zm-4.74-1.63c-.13-2.41-1.25-3.62-3.36-3.62s-3.32,1.21-3.55,3.62h6.91Z"/>
      <path class="cls-2" d="m131.26,150h-4.48v-11.07c0-.83-.26-1.49-.77-1.97-.51-.48-1.16-.72-1.95-.72-1,0-1.83.35-2.5,1.04-.66.7-.99,1.57-.99,2.61v10.1h-4.8v-23.33h4.48v8.16c1.22-1.64,3.01-2.46,5.38-2.46,1.56,0,2.87.42,3.94,1.25,1.13.9,1.7,2.07,1.7,3.52v12.86Z"/>
      <path class="cls-2" d="m150.17,141.36c0,.51-.03.97-.1,1.38h-11.49c-.04.13-.06.33-.06.61,0,1.13.35,2.04,1.05,2.74.7.69,1.61,1.04,2.73,1.04.74,0,1.43-.21,2.06-.64.57-.4.93-.86,1.08-1.38h4.54c-.6,1.69-1.65,3.04-3.15,4.06-1.5,1.02-3.18,1.54-5.04,1.54-2.07,0-3.81-.65-5.22-1.95-1.69-1.56-2.53-3.79-2.53-6.69,0-3.11.68-5.51,2.03-7.18,1.35-1.67,3.3-2.51,5.84-2.51s4.47.83,5.98,2.48,2.27,3.82,2.27,6.51Zm-4.74-1.63c-.13-2.41-1.25-3.62-3.36-3.62s-3.32,1.21-3.55,3.62h6.91Z"/>
      <path class="cls-2" d="m167.97,141.36c0,.51-.03.97-.1,1.38h-11.49c-.04.13-.06.33-.06.61,0,1.13.35,2.04,1.05,2.74.7.69,1.61,1.04,2.73,1.04.74,0,1.43-.21,2.06-.64.57-.4.93-.86,1.08-1.38h4.54c-.6,1.69-1.65,3.04-3.15,4.06-1.5,1.02-3.18,1.54-5.04,1.54-2.07,0-3.81-.65-5.22-1.95-1.69-1.56-2.53-3.79-2.53-6.69,0-3.11.68-5.51,2.03-7.18,1.35-1.67,3.3-2.51,5.84-2.51s4.47.83,5.98,2.48,2.27,3.82,2.27,6.51Zm-4.74-1.63c-.13-2.41-1.25-3.62-3.36-3.62s-3.32,1.21-3.55,3.62h6.91Z"/>
      <path class="cls-2" d="m180.73,136.91c-.6-.06-1.04-.1-1.31-.1-1.26,0-2.25.34-2.96,1.01-.72.67-1.07,1.52-1.07,2.54v9.63h-4.48v-17.34h4.48v3.36c.32-1.02.96-1.89,1.92-2.59s1.92-1.06,2.88-1.06c.11,0,.29.02.54.06v4.48Z"/>
    </g>
    <g>
      <path class="cls-3" d="m183.88,150.7h-2.2v-2.14h2.2v2.14Z"/>
      <path class="cls-3" d="m192.53,147.93c-.43,2.07-1.63,3.1-3.6,3.1-1.17,0-2.06-.34-2.69-1.04s-.94-1.71-.94-3.05.28-2.29.85-3.04c.65-.86,1.62-1.29,2.92-1.29,1.1,0,1.91.26,2.44.78.47.46.81,1.23,1.01,2.32h-2.03c-.12-.49-.29-.83-.52-1.02-.23-.2-.57-.3-1.01-.3-1.04,0-1.56.83-1.56,2.49s.58,2.49,1.74,2.49c.35,0,.63-.11.83-.32.2-.22.38-.59.54-1.12h2.02Z"/>
      <path class="cls-3" d="m201.36,146.83c0,1.34-.35,2.38-1.05,3.11s-1.69,1.1-2.96,1.1c-1.18,0-2.12-.38-2.81-1.15s-1.03-1.81-1.03-3.13.34-2.32,1.03-3.05c.69-.74,1.65-1.1,2.89-1.1s2.2.37,2.89,1.12,1.04,1.78,1.04,3.1Zm-2.06,0c0-.73-.18-1.33-.53-1.79s-.8-.69-1.34-.69-.98.24-1.33.73-.52,1.11-.52,1.88c0,.63.18,1.18.55,1.62.37.45.81.67,1.33.67s.98-.23,1.32-.68.51-1.04.51-1.75Z"/>
      <path class="cls-3" d="m214.08,150.7h-2.06v-5.52c0-.17-.09-.33-.26-.48-.23-.21-.53-.31-.91-.31-.33,0-.64.14-.93.42-.28.28-.43.58-.43.9v5h-2.06v-5.38c0-.24-.09-.46-.28-.63-.22-.21-.51-.31-.9-.31s-.69.13-.96.4-.4.57-.4.91v5.01h-2.06v-7.96h2.06v1.16c.36-.49.7-.83,1.01-1.01.31-.19.67-.28,1.09-.28.91,0,1.66.39,2.25,1.16.53-.77,1.27-1.16,2.22-1.16.77,0,1.39.19,1.84.56.51.4.76,1,.76,1.79v5.74Z"/>
    </g>
  </g>
  <g>
    <rect class="cls-2" x="52.43" width="110.15" height="110.15"/>
    <path class="cls-1" d="m77.93,53.47l-13.91,8.9c10.17-.81,24.28,5.68,36.24,17.64,4.97,4.97,9,10.32,11.95,15.6h5.23c-2.28-8.54-8.04-18.22-16.61-26.79-7.29-7.29-15.39-12.54-22.9-15.35Z"/>
    <path class="cls-4" d="m113.01,53.67c-8.98-8.98-19.18-14.88-28.01-16.91l-16.36,10.46c10.17-.81,24.28,5.68,36.24,17.64,9.93,9.93,16.09,21.34,17.43,30.75h6.91c4.66-10-1.81-27.53-16.22-41.94Z"/>
    <path class="cls-3" d="m118.14,11.41l-34.27,21.91c10.17-.81,24.28,5.68,36.24,17.64,15.81,15.81,22.07,35.4,14.54,44.64h16.36V11.41h-32.86Z"/>
  </g>
</svg>